<?xml version="1.0" standalone="no"?>
<!DOCTYPE svg PUBLIC "-//W3C//DTD SVG 20010904//EN"
 "http://www.w3.org/TR/2001/REC-SVG-20010904/DTD/svg10.dtd">
<svg version="1.0" xmlns="http://www.w3.org/2000/svg"
 width="304.000000pt" height="304.000000pt" viewBox="0 0 304.000000 304.000000"
 preserveAspectRatio="xMidYMid meet">
<metadata>
Created by potrace 1.11, written by Peter Selinger 2001-2013
</metadata>
<g transform="translate(0.000000,304.000000) scale(0.100000,-0.100000)"
fill="#000000" stroke="none">
<path d="M1345 3030 c-22 -4 -62 -10 -90 -14 -141 -20 -371 -106 -516 -193
-350 -212 -598 -550 -694 -946 -33 -134 -40 -196 -40 -352 1 -133 8 -225 25
-305 6 -25 13 -56 15 -70 11 -51 68 -207 103 -280 54 -113 146 -256 212 -330
158 -177 312 -296 497 -386 83 -40 232 -95 293 -108 162 -35 186 -38 350 -41
143 -2 221 6 380 38 60 12 221 71 305 112 74 36 235 134 255 155 3 3 34 30 70
60 36 30 84 75 106 100 82 88 114 125 114 132 0 4 6 13 13 20 15 15 77 105 77
111 0 3 15 30 34 61 31 52 97 208 125 296 61 194 75 522 31 725 -6 28 -12 60
-14 71 -7 41 -68 209 -102 281 -30 65 -128 230 -143 243 -3 3 -19 23 -35 45
-16 22 -37 47 -45 56 -121 126 -164 167 -206 197 -27 20 -52 39 -55 43 -10 14
-167 106 -240 141 -74 36 -227 91 -285 103 -26 6 -69 14 -155 31 -42 8 -342
11 -385 4z"/>
</g>
</svg>
